<svg width="128" height="128" viewBox="0 0 128 128" fill="none" xmlns="http://www.w3.org/2000/svg">
<path d="M97.1238 31.632L97.0407 31.5831L96.8483 31.5244C96.9257 31.5898 97.0226 31.6276 97.1238 31.632V31.632Z" fill="#0D0C22"/>
<path d="M98.3356 40.2905L98.2426 40.3166L98.3356 40.2905Z" fill="#0D0C22"/>
<path d="M97.1593 31.6186C97.1475 31.6171 97.1359 31.6143 97.1247 31.6104C97.124 31.618 97.124 31.6258 97.1247 31.6334C97.1374 31.6318 97.1494 31.6267 97.1593 31.6186V31.6186Z" fill="#0D0C22"/>
<path d="M97.1242 31.6333H97.1367V31.6255L97.1242 31.6333Z" fill="#0D0C22"/>
<path d="M98.2612 40.275L98.4014 40.1951L98.4536 40.1658L98.5009 40.1152C98.412 40.1536 98.3307 40.2077 98.2612 40.275V40.275Z" fill="#0D0C22"/>
<path d="M97.3664 31.8211L97.2295 31.6907L97.1365 31.6401C97.1865 31.7283 97.269 31.7933 97.3664 31.8211V31.8211Z" fill="#0D0C22"/>
<path d="M62.9076 115.84C62.7982 115.887 62.7023 115.961 62.6288 116.055L62.7153 116C62.7739 115.946 62.8571 115.882 62.9076 115.84Z" fill="#0D0C22"/>
<path d="M82.9176 111.903C82.9176 111.779 82.8573 111.802 82.8719 112.242C82.8719 112.206 82.8866 112.17 82.8931 112.136C82.9013 112.058 82.9078 111.981 82.9176 111.903Z" fill="#0D0C22"/>
<path d="M80.8421 115.84C80.7327 115.887 80.6368 115.961 80.5633 116.055L80.6497 116C80.7084 115.946 80.7916 115.882 80.8421 115.84Z" fill="#0D0C22"/>
<path d="M48.8157 116.776C48.7327 116.704 48.631 116.656 48.5223 116.639C48.6103 116.682 48.6984 116.724 48.757 116.757L48.8157 116.776Z" fill="#0D0C22"/>
<path d="M45.6449 113.739C45.6319 113.611 45.5925 113.486 45.5291 113.374C45.574 113.491 45.6116 113.611 45.6416 113.733L45.6449 113.739Z" fill="#0D0C22"/>
<path d="M66.9448 59.4263C62.5915 61.2899 57.6512 63.403 51.2484 63.403C48.5699 63.3976 45.9045 63.0302 43.3245 62.3106L47.7528 107.776C47.9095 109.676 48.7752 111.448 50.1779 112.739C51.5806 114.031 53.4178 114.748 55.3246 114.747C55.3246 114.747 61.6034 115.073 63.6985 115.073C65.9534 115.073 72.7149 114.747 72.7149 114.747C74.6214 114.747 76.4581 114.03 77.8605 112.739C79.2629 111.447 80.1283 109.676 80.2851 107.776L85.028 57.535C82.9085 56.8111 80.7693 56.3301 78.3579 56.3301C74.1872 56.3284 70.8268 57.7649 66.9448 59.4263Z" fill="#FFDD00"/>
<path d="M29.6163 40.0288L29.6913 40.0989L29.7402 40.1283C29.7026 40.0908 29.661 40.0575 29.6163 40.0288V40.0288Z" fill="#0D0C22"/>
<path d="M105.506 35.8328L104.839 32.4692C104.241 29.4513 102.883 26.5996 99.7847 25.5088C98.7918 25.1599 97.6651 25.0099 96.9037 24.2876C96.1423 23.5653 95.9173 22.4436 95.7412 21.4034C95.4151 19.4941 95.1086 17.5832 94.7744 15.6772C94.4858 14.0386 94.2575 12.1979 93.5059 10.6946C92.5276 8.67611 90.4977 7.49567 88.4792 6.71468C87.4449 6.32858 86.3894 6.00196 85.3178 5.73641C80.2748 4.40597 74.9726 3.91684 69.7845 3.63803C63.5573 3.29442 57.3136 3.39794 51.1012 3.94781C46.4773 4.36847 41.6071 4.87717 37.2131 6.47664C35.6071 7.06197 33.9522 7.76469 32.731 9.00546C31.2326 10.5299 30.7435 12.8876 31.8375 14.7887C32.6152 16.1387 33.9326 17.0925 35.3299 17.7235C37.1499 18.5365 39.0507 19.1551 41.0006 19.5691C46.43 20.7691 52.0534 21.2403 57.6002 21.4409C63.748 21.689 69.9057 21.4879 76.0242 20.8392C77.5373 20.6729 79.0476 20.4735 80.5552 20.2409C82.3308 19.9686 83.4705 17.6468 82.9471 16.0294C82.321 14.0957 80.6384 13.3457 78.7357 13.6376C78.4552 13.6816 78.1764 13.7223 77.896 13.7631L77.6938 13.7925C77.0492 13.874 76.4047 13.9501 75.7601 14.0207C74.4286 14.1642 73.0938 14.2816 71.7557 14.3729C68.759 14.5816 65.754 14.6778 62.7508 14.6827C59.7996 14.6827 56.8469 14.5995 53.9023 14.4055C52.5588 14.3175 51.2186 14.2055 49.8816 14.0696C49.2735 14.006 48.667 13.9392 48.0604 13.8642L47.4832 13.7908L47.3577 13.7729L46.7593 13.6865C45.5365 13.5022 44.3137 13.2903 43.1039 13.0343C42.9818 13.0072 42.8726 12.9393 42.7943 12.8418C42.7161 12.7442 42.6734 12.6229 42.6734 12.4979C42.6734 12.3728 42.7161 12.2515 42.7943 12.154C42.8726 12.0565 42.9818 11.9885 43.1039 11.9615H43.1267C44.1751 11.7381 45.2316 11.5473 46.2914 11.381C46.6447 11.3256 46.999 11.2712 47.3544 11.218H47.3642C48.0278 11.174 48.6947 11.0549 49.355 10.9767C55.1001 10.3791 60.8794 10.1753 66.6524 10.3669C69.4551 10.4484 72.2563 10.6131 75.046 10.8968C75.646 10.9587 76.2427 11.024 76.8395 11.0973C77.0677 11.125 77.2976 11.1576 77.5275 11.1854L77.9905 11.2522C79.3406 11.4533 80.6835 11.6973 82.0194 11.9843C83.9987 12.4147 86.5406 12.5549 87.421 14.7234C87.7015 15.4115 87.8287 16.1762 87.9836 16.8985L88.1808 17.8197C88.186 17.8362 88.1898 17.8531 88.1923 17.8702C88.6586 20.0441 89.1254 22.2181 89.5928 24.392C89.6271 24.5526 89.6279 24.7185 89.5952 24.8794C89.5625 25.0403 89.4969 25.1928 89.4027 25.3273C89.3085 25.4618 89.1875 25.5754 89.0474 25.661C88.9073 25.7467 88.7511 25.8026 88.5885 25.8251H88.5754L88.2901 25.8643L88.008 25.9018C87.1145 26.0181 86.22 26.1268 85.3243 26.2279C83.5601 26.429 81.7933 26.6029 80.0237 26.7496C76.5074 27.042 72.984 27.2339 69.4535 27.3252C67.6546 27.373 65.8562 27.3953 64.0584 27.392C56.9023 27.3864 49.7525 26.9705 42.6441 26.1463C41.8745 26.055 41.1049 25.9572 40.3354 25.8578C40.9321 25.9344 39.9017 25.7991 39.693 25.7697C39.2038 25.7012 38.7147 25.63 38.2256 25.5561C36.5837 25.3099 34.9516 25.0067 33.313 24.7409C31.332 24.4148 29.4375 24.5779 27.6456 25.5561C26.1748 26.361 24.9843 27.5952 24.2331 29.0942C23.4602 30.692 23.2304 32.4317 22.8847 34.1486C22.539 35.8654 22.001 37.7127 22.2048 39.4753C22.6434 43.2791 25.3027 46.3704 29.1277 47.0617C32.7261 47.7139 36.344 48.2422 39.9718 48.6922C54.2224 50.4375 68.6193 50.6463 82.9145 49.315C84.0786 49.2063 85.2411 49.0878 86.402 48.9596C86.7646 48.9197 87.1315 48.9615 87.4759 49.0818C87.8202 49.2021 88.1333 49.398 88.3922 49.655C88.651 49.912 88.8491 50.2236 88.972 50.5671C89.0948 50.9105 89.1392 51.2771 89.102 51.64L88.7401 55.1585C88.0107 62.2684 87.2814 69.3776 86.552 76.4864C85.7911 83.9517 85.0254 91.4164 84.2547 98.8806C84.0373 100.983 83.8199 103.084 83.6025 105.186C83.3938 107.255 83.3645 109.389 82.9716 111.433C82.352 114.649 80.1753 116.623 76.9992 117.345C74.0894 118.008 71.1169 118.355 68.1329 118.382C64.8247 118.4 61.5181 118.254 58.21 118.271C54.6784 118.291 50.3528 117.965 47.6267 115.337C45.2316 113.028 44.9006 109.413 44.5745 106.288C44.1397 102.15 43.7088 98.0121 43.2816 93.8751L40.8848 70.8711L39.3343 55.9868C39.3082 55.7406 39.2821 55.4977 39.2576 55.2498C39.0718 53.4743 37.8147 51.7362 35.8337 51.8259C34.138 51.9009 32.2109 53.3422 32.4098 55.2498L33.5592 66.2847L35.9364 89.1109C36.6136 95.5947 37.2892 102.08 37.9631 108.565C38.0935 109.808 38.2158 111.053 38.3527 112.296C39.0979 119.085 44.2827 122.744 50.7034 123.774C54.4534 124.378 58.2947 124.501 62.1002 124.563C66.9785 124.642 71.9057 124.829 76.7041 123.945C83.8145 122.641 89.1493 117.893 89.9107 110.528C90.1281 108.402 90.3455 106.276 90.5629 104.149C91.2858 97.1137 92.0075 90.0783 92.7281 83.0424L95.0858 60.0531L96.1668 49.5172C96.2206 48.9947 96.4412 48.5035 96.796 48.1162C97.1507 47.7289 97.6207 47.4661 98.1363 47.3666C100.17 46.9704 102.113 46.2938 103.559 44.7465C105.861 42.2829 106.32 39.0709 105.506 35.8328ZM29.0233 38.1057C29.0543 38.091 28.9972 38.3568 28.9728 38.4807C28.9679 38.2932 28.9777 38.1269 29.0233 38.1057ZM29.2206 39.6318C29.2369 39.6204 29.2858 39.6856 29.3364 39.7638C29.2597 39.6921 29.2108 39.6383 29.219 39.6318H29.2206ZM29.4146 39.8878C29.4848 40.0068 29.5223 40.0818 29.4146 39.8878V39.8878ZM29.8043 40.2041H29.8141C29.8141 40.2155 29.832 40.2269 29.8386 40.2383C29.8277 40.2257 29.8157 40.2143 29.8027 40.2041H29.8043ZM98.0418 39.7312C97.3113 40.4258 96.2108 40.7486 95.1233 40.91C82.9275 42.7198 70.5541 43.6361 58.2246 43.2318C49.4007 42.9302 40.6696 41.9503 31.9337 40.716C31.0777 40.5954 30.15 40.4388 29.5614 39.8079C28.4527 38.6176 28.9972 36.2209 29.2858 34.7828C29.55 33.4654 30.0554 31.7094 31.6223 31.5219C34.0679 31.235 36.9082 32.267 39.3278 32.6339C42.2408 33.0785 45.1648 33.4344 48.0996 33.7018C60.6247 34.8431 73.3601 34.6654 85.8297 32.9959C88.1026 32.6904 90.3673 32.3355 92.6238 31.9312C94.6341 31.5708 96.863 30.8942 98.0777 32.9763C98.9108 34.3948 99.0217 36.2926 98.8929 37.8953C98.8532 38.5937 98.5481 39.2504 98.0401 39.7312H98.0418Z" fill="#0D0C22"/>
</svg>
